<?xml version="1.0" standalone="no"?>
<!DOCTYPE svg PUBLIC "-//W3C//DTD SVG 20010904//EN"
 "http://www.w3.org/TR/2001/REC-SVG-20010904/DTD/svg10.dtd">
<svg version="1.0" xmlns="http://www.w3.org/2000/svg"
 width="529.000000pt" height="528.000000pt" viewBox="0 0 529.000000 528.000000"
 preserveAspectRatio="xMidYMid meet">

<g transform="translate(0.000000,528.000000) scale(0.100000,-0.100000)"
fill="#000000" stroke="none">
<path d="M2424 5270 c-516 -46 -1001 -236 -1404 -548 -108 -84 -311 -281 -405
-393 -313 -373 -511 -819 -586 -1319 -26 -171 -31 -511 -10 -675 104 -818 556
-1524 1247 -1948 693 -425 1561 -504 2320 -212 1190 459 1881 1695 1649 2951
-188 1015 -971 1839 -1977 2079 -246 59 -599 87 -834 65z m476 -390 c259 -32
495 -102 727 -215 246 -120 435 -257 629 -457 175 -179 294 -347 402 -563 159
-320 234 -638 235 -1000 1 -253 -31 -464 -104 -690 -283 -887 -1079 -1507
-2006 -1564 -308 -19 -635 27 -913 129 -119 43 -348 158 -455 227 -532 348
-892 900 -1000 1533 -22 130 -31 448 -16 591 62 587 357 1137 810 1509 321
263 723 439 1131 494 126 17 442 20 560 6z"/>
<path d="M1450 3959 c-95 -43 -144 -123 -144 -234 0 -105 34 -161 134 -218 63
-36 115 -43 184 -23 147 43 225 206 165 346 -23 54 -93 119 -148 138 -53 18
-140 14 -191 -9z"/>
<path d="M1300 2305 l0 -1005 255 0 255 0 0 1005 0 1005 -255 0 -255 0 0
-1005z"/>
<path d="M2140 2305 l0 -1005 255 0 255 0 0 600 0 599 35 73 c72 148 184 223
350 235 191 14 327 -76 417 -274 22 -48 22 -52 19 -620 -2 -314 0 -581 4 -592
6 -21 12 -21 256 -21 l250 0 -3 748 c-4 732 -4 748 -25 814 -54 171 -166 309
-306 378 -116 57 -202 73 -362 67 -149 -6 -218 -23 -341 -85 -85 -43 -209
-136 -263 -197 l-31 -36 0 161 0 160 -255 0 -255 0 0 -1005z"/>
</g>
</svg>
