<?xml version="1.0" encoding="UTF-8"?>
<svg xmlns="http://www.w3.org/2000/svg" xmlns:xlink="http://www.w3.org/1999/xlink" width="30px" height="30px" viewBox="0 0 30 29" version="1.1">
<g id="surface1">
<path style=" stroke:none;fill-rule:nonzero;fill:rgb(0%,0%,0%);fill-opacity:1;" d="M 13.75 0.0546875 C 10.824219 0.308594 8.074219 1.351562 5.785156 3.066406 C 5.175781 3.527344 4.023438 4.609375 3.488281 5.222656 C 1.714844 7.273438 0.589844 9.722656 0.164062 12.46875 C 0.015625 13.40625 -0.0117188 15.273438 0.109375 16.175781 C 0.699219 20.667969 3.261719 24.546875 7.183594 26.875 C 11.113281 29.207031 16.039062 29.644531 20.34375 28.039062 C 27.09375 25.519531 31.015625 18.730469 29.699219 11.832031 C 28.632812 6.257812 24.191406 1.730469 18.484375 0.410156 C 17.085938 0.0859375 15.085938 -0.0664062 13.75 0.0546875 Z M 16.453125 2.195312 C 17.921875 2.371094 19.261719 2.757812 20.578125 3.378906 C 21.972656 4.035156 23.042969 4.789062 24.144531 5.886719 C 25.136719 6.871094 25.8125 7.792969 26.425781 8.980469 C 27.328125 10.738281 27.753906 12.484375 27.757812 14.472656 C 27.765625 15.863281 27.582031 17.019531 27.167969 18.261719 C 25.5625 23.132812 21.046875 26.539062 15.789062 26.851562 C 14.042969 26.957031 12.1875 26.703125 10.609375 26.144531 C 9.933594 25.90625 8.632812 25.277344 8.027344 24.898438 C 5.007812 22.984375 2.96875 19.953125 2.355469 16.476562 C 2.230469 15.761719 2.179688 14.015625 2.261719 13.230469 C 2.617188 10.007812 4.289062 6.988281 6.859375 4.941406 C 8.679688 3.5 10.960938 2.53125 13.273438 2.230469 C 13.988281 2.136719 15.78125 2.121094 16.453125 2.195312 Z M 16.453125 2.195312 "/>
<path style=" stroke:none;fill-rule:nonzero;fill:rgb(0%,0%,0%);fill-opacity:1;" d="M 8.226562 7.253906 C 7.6875 7.492188 7.410156 7.929688 7.410156 8.539062 C 7.410156 9.117188 7.601562 9.425781 8.167969 9.738281 C 8.527344 9.9375 8.820312 9.972656 9.214844 9.863281 C 10.046875 9.628906 10.488281 8.734375 10.148438 7.964844 C 10.019531 7.667969 9.621094 7.308594 9.308594 7.207031 C 9.007812 7.105469 8.515625 7.128906 8.226562 7.253906 Z M 8.226562 7.253906 "/>
<path style=" stroke:none;fill-rule:nonzero;fill:rgb(0%,0%,0%);fill-opacity:1;" d="M 7.375 16.339844 L 7.375 21.859375 L 10.269531 21.859375 L 10.269531 10.820312 L 7.375 10.820312 Z M 7.375 16.339844 "/>
<path style=" stroke:none;fill-rule:nonzero;fill:rgb(0%,0%,0%);fill-opacity:1;" d="M 12.140625 16.339844 L 12.140625 21.859375 L 15.035156 21.859375 L 15.035156 15.273438 L 15.234375 14.875 C 15.640625 14.0625 16.277344 13.648438 17.21875 13.582031 C 18.300781 13.507812 19.074219 14 19.582031 15.085938 C 19.707031 15.351562 19.707031 15.375 19.691406 18.492188 C 19.679688 20.21875 19.691406 21.683594 19.714844 21.746094 C 19.75 21.859375 19.78125 21.859375 21.167969 21.859375 L 22.585938 21.859375 L 22.566406 17.75 C 22.546875 13.730469 22.546875 13.644531 22.425781 13.28125 C 22.121094 12.339844 21.484375 11.582031 20.691406 11.203125 C 20.03125 10.890625 19.542969 10.804688 18.636719 10.835938 C 17.792969 10.871094 17.398438 10.960938 16.703125 11.304688 C 16.21875 11.539062 15.515625 12.050781 15.210938 12.386719 L 15.035156 12.582031 L 15.035156 10.820312 L 12.140625 10.820312 Z M 12.140625 16.339844 "/>
</g>
</svg>
