<?xml version="1.0" encoding="UTF-8"?>
<svg xmlns="http://www.w3.org/2000/svg" xmlns:xlink="http://www.w3.org/1999/xlink" width="30px" height="30px" viewBox="0 0 30 30" version="1.1">
<g id="surface1">
<path style=" stroke:none;fill-rule:nonzero;fill:rgb(0%,0%,0%);fill-opacity:1;" d="M 14.28125 2.210938 C 10.972656 2.460938 8.175781 3.730469 5.929688 5.984375 C 3.945312 7.980469 2.695312 10.527344 2.304688 13.378906 C 2.191406 14.191406 2.195312 15.796875 2.308594 16.675781 C 2.675781 19.425781 3.957031 22.039062 5.902344 23.996094 C 6.984375 25.078125 7.996094 25.804688 9.367188 26.488281 C 10.621094 27.113281 11.96875 27.515625 13.457031 27.71875 C 14.203125 27.820312 16.003906 27.808594 16.753906 27.691406 C 18.980469 27.355469 20.957031 26.542969 22.710938 25.234375 C 23.429688 24.695312 24.695312 23.429688 25.234375 22.710938 C 28.042969 18.941406 28.597656 14.089844 26.703125 9.78125 C 24.925781 5.738281 20.996094 2.835938 16.554688 2.292969 C 16.054688 2.230469 14.6875 2.179688 14.28125 2.210938 Z M 9.398438 7.480469 C 9.648438 7.570312 10.074219 7.988281 10.191406 8.269531 C 10.234375 8.371094 10.265625 8.617188 10.265625 8.8125 C 10.261719 9.398438 10.003906 9.828125 9.5 10.097656 C 9.277344 10.210938 9.160156 10.234375 8.828125 10.234375 C 8.460938 10.234375 8.402344 10.21875 8.117188 10.042969 C 7.441406 9.628906 7.210938 8.863281 7.554688 8.1875 C 7.910156 7.480469 8.628906 7.207031 9.398438 7.480469 Z M 10.320312 16.886719 L 10.320312 22.605469 L 7.394531 22.605469 L 7.394531 11.171875 L 10.320312 11.171875 Z M 15.054688 12.085938 L 15.054688 12.996094 L 15.441406 12.628906 C 15.925781 12.160156 16.246094 11.929688 16.792969 11.652344 C 17.488281 11.308594 17.980469 11.203125 18.855469 11.203125 C 19.71875 11.203125 20.195312 11.308594 20.824219 11.636719 C 21.542969 12.015625 22.160156 12.820312 22.460938 13.765625 C 22.574219 14.117188 22.578125 14.207031 22.597656 18.367188 L 22.613281 22.605469 L 21.1875 22.597656 L 19.761719 22.578125 L 19.734375 19.203125 L 19.707031 15.824219 L 19.539062 15.480469 C 19.039062 14.484375 18.398438 14.042969 17.46875 14.042969 C 16.441406 14.042969 15.675781 14.515625 15.246094 15.410156 L 15.054688 15.804688 L 15.054688 22.605469 L 12.128906 22.605469 L 12.128906 11.171875 L 15.054688 11.171875 Z M 15.054688 12.085938 "/>
</g>
</svg>
