<?xml version="1.0" standalone="no"?>
<!DOCTYPE svg PUBLIC "-//W3C//DTD SVG 20010904//EN"
 "http://www.w3.org/TR/2001/REC-SVG-20010904/DTD/svg10.dtd">
<svg version="1.0" xmlns="http://www.w3.org/2000/svg"
 width="564.000000pt" height="564.000000pt" viewBox="0 0 564.000000 564.000000"
 preserveAspectRatio="xMidYMid meet">

<g transform="translate(0.000000,564.000000) scale(0.100000,-0.100000)"
fill="#000000" stroke="none">
<path d="M2685 5224 c-622 -47 -1148 -285 -1570 -709 -373 -375 -608 -854
-682 -1390 -21 -153 -20 -455 1 -620 69 -517 310 -1008 676 -1376 203 -204
393 -340 651 -469 236 -117 489 -193 769 -231 140 -19 479 -17 620 5 418 63
790 216 1120 462 135 101 373 339 474 474 528 709 632 1621 276 2431 -334 760
-1073 1306 -1908 1408 -94 12 -351 21 -427 15z m-918 -990 c47 -17 127 -96
149 -149 8 -19 14 -65 14 -102 -1 -110 -49 -191 -144 -241 -42 -22 -64 -26
-126 -26 -69 0 -80 3 -134 36 -127 78 -170 222 -106 349 67 133 202 184 347
133z m173 -1769 l0 -1075 -275 0 -275 0 0 1075 0 1075 275 0 275 0 0 -1075z
m890 903 l0 -171 73 69 c91 88 151 131 254 183 131 65 223 85 388 85 162 0
252 -20 370 -82 135 -71 251 -222 308 -400 21 -66 22 -83 25 -865 l3 -797
-268 2 -268 3 -5 635 -5 635 -32 65 c-94 187 -214 270 -389 270 -193 0 -337
-89 -418 -257 l-36 -74 0 -640 0 -639 -275 0 -275 0 0 1075 0 1075 275 0 275
0 0 -172z"/>
</g>
</svg>
