<?xml version="1.0" standalone="no"?>
<!DOCTYPE svg PUBLIC "-//W3C//DTD SVG 20010904//EN"
 "http://www.w3.org/TR/2001/REC-SVG-20010904/DTD/svg10.dtd">
<svg version="1.0" xmlns="http://www.w3.org/2000/svg"
 width="488.000000pt" height="490.000000pt" viewBox="0 0 488.000000 490.000000"
 preserveAspectRatio="xMidYMid meet">

<g transform="translate(0.000000,490.000000) scale(0.100000,-0.100000)"
fill="#000000" stroke="none">
<path d="M2153 4875 c-545 -69 -1041 -312 -1428 -700 -340 -340 -574 -770
-670 -1232 -66 -321 -62 -705 11 -1033 223 -999 1074 -1766 2090 -1885 727
-85 1447 159 1973 670 334 325 560 712 671 1149 59 233 74 357 74 606 0 249
-15 373 -74 605 -106 418 -311 782 -615 1094 -385 395 -825 623 -1385 717
-135 22 -502 27 -647 9z m667 -224 c787 -146 1422 -672 1707 -1416 44 -114 97
-318 120 -460 24 -151 25 -495 0 -650 -104 -662 -474 -1224 -1041 -1579 -226
-142 -487 -241 -781 -297 -159 -31 -483 -38 -666 -14 -637 80 -1210 437 -1576
982 -76 114 -198 358 -243 488 -84 240 -123 479 -123 745 0 214 17 359 68 555
43 169 81 270 160 431 325 666 961 1123 1710 1229 151 21 514 14 665 -14z"/>
<path d="M1030 3573 c-26 -10 -65 -37 -95 -67 -90 -90 -85 -22 -85 -1056 0
-1014 -4 -959 72 -1045 22 -25 59 -56 82 -68 l41 -22 1415 -3 c1569 -3 1466
-7 1548 64 22 19 53 60 69 92 l28 57 0 925 c0 857 -1 928 -17 963 -28 62 -73
111 -130 143 l-53 29 -1415 2 c-1269 1 -1420 0 -1460 -14z m2730 -188 c0 -11
-1128 -1038 -1176 -1071 -90 -62 -142 -57 -247 27 -36 29 -725 655 -1117 1016
l-35 32 1288 1 c708 0 1287 -2 1287 -5z m-2267 -579 c218 -198 397 -363 397
-366 0 -7 -791 -746 -822 -768 -17 -13 -18 14 -18 758 l0 771 23 -18 c13 -10
202 -180 420 -377z m2405 -760 l-3 -385 -415 387 c-228 212 -416 388 -417 391
-1 3 186 175 415 382 l417 376 3 -383 c1 -211 1 -557 0 -768z m-1623 53 c124
-61 281 -61 403 0 31 16 97 65 147 109 l89 80 67 -62 c37 -33 227 -207 422
-386 l355 -325 -639 -3 c-352 -1 -927 -1 -1280 0 l-641 3 422 387 423 387 86
-80 c49 -45 112 -93 146 -110z"/>
</g>
</svg>
