<?xml version="1.0" encoding="UTF-8"?>
<svg xmlns="http://www.w3.org/2000/svg" xmlns:xlink="http://www.w3.org/1999/xlink" width="30px" height="30px" viewBox="0 0 30 30" version="1.1">
<g id="surface1">
<path style=" stroke:none;fill-rule:nonzero;fill:rgb(0%,0%,0%);fill-opacity:1;" d="M 13.246094 1.4375 C 8.644531 2.085938 4.734375 4.882812 2.734375 8.957031 C 1.765625 10.933594 1.335938 12.78125 1.335938 14.988281 C 1.335938 17.214844 1.746094 19.007812 2.734375 21.011719 C 3.449219 22.476562 4.222656 23.546875 5.410156 24.71875 C 7.523438 26.808594 10.320312 28.164062 13.273438 28.539062 C 14.398438 28.683594 16.390625 28.640625 17.367188 28.453125 C 20.152344 27.925781 22.480469 26.75 24.4375 24.886719 C 26.660156 22.773438 28.089844 20.046875 28.566406 16.976562 C 28.722656 16.027344 28.714844 13.921875 28.566406 13 C 28.261719 11.132812 27.671875 9.507812 26.730469 7.953125 C 24.675781 4.558594 21.320312 2.257812 17.335938 1.523438 C 16.40625 1.351562 14.175781 1.308594 13.246094 1.4375 Z M 24.332031 8.222656 C 24.683594 8.417969 24.960938 8.71875 25.132812 9.097656 C 25.230469 9.3125 25.234375 9.746094 25.234375 14.988281 L 25.234375 20.644531 L 25.0625 20.996094 C 24.964844 21.191406 24.773438 21.441406 24.640625 21.558594 C 24.136719 21.992188 24.769531 21.96875 15.121094 21.949219 L 6.425781 21.929688 L 6.171875 21.796875 C 6.03125 21.722656 5.804688 21.535156 5.667969 21.378906 C 5.199219 20.855469 5.226562 21.191406 5.226562 14.988281 C 5.226562 8.664062 5.195312 9.078125 5.746094 8.527344 C 6.300781 7.976562 5.464844 8.019531 15.308594 8.03125 L 24.007812 8.042969 Z M 24.332031 8.222656 "/>
<path style=" stroke:none;fill-rule:nonzero;fill:rgb(0%,0%,0%);fill-opacity:1;" d="M 7.5 9.4375 C 9.910156 11.648438 14.144531 15.476562 14.367188 15.65625 C 15.011719 16.167969 15.332031 16.199219 15.886719 15.820312 C 16.179688 15.617188 23.113281 9.335938 23.113281 9.269531 C 23.113281 9.25 19.554688 9.238281 15.203125 9.238281 L 7.285156 9.242188 Z M 7.5 9.4375 "/>
<path style=" stroke:none;fill-rule:nonzero;fill:rgb(0%,0%,0%);fill-opacity:1;" d="M 6.453125 15.109375 C 6.453125 19.660156 6.460938 19.828125 6.566406 19.746094 C 6.757812 19.613281 11.617188 15.089844 11.617188 15.050781 C 11.617188 15.011719 6.898438 10.734375 6.597656 10.503906 L 6.453125 10.394531 Z M 6.453125 15.109375 "/>
<path style=" stroke:none;fill-rule:nonzero;fill:rgb(0%,0%,0%);fill-opacity:1;" d="M 21.382812 12.71875 C 19.972656 13.984375 18.824219 15.035156 18.828125 15.054688 C 18.835938 15.074219 19.992188 16.148438 21.394531 17.445312 L 23.945312 19.8125 L 23.964844 17.460938 C 23.96875 16.167969 23.96875 14.050781 23.964844 12.761719 L 23.945312 10.417969 Z M 21.382812 12.71875 "/>
<path style=" stroke:none;fill-rule:nonzero;fill:rgb(0%,0%,0%);fill-opacity:1;" d="M 9.960938 18.339844 L 7.363281 20.707031 L 11.304688 20.726562 C 13.476562 20.730469 17.011719 20.730469 19.175781 20.726562 L 23.101562 20.707031 L 20.921875 18.71875 C 19.722656 17.625 18.554688 16.558594 18.324219 16.359375 L 17.914062 15.980469 L 17.367188 16.46875 C 16.710938 17.054688 16.265625 17.289062 15.652344 17.386719 C 14.703125 17.53125 13.953125 17.261719 13.089844 16.460938 L 12.558594 15.972656 Z M 9.960938 18.339844 "/>
</g>
</svg>
