<?xml version="1.0" standalone="no"?>
<!DOCTYPE svg PUBLIC "-//W3C//DTD SVG 20010904//EN"
 "http://www.w3.org/TR/2001/REC-SVG-20010904/DTD/svg10.dtd">
<svg version="1.0" xmlns="http://www.w3.org/2000/svg"
 width="488.000000pt" height="490.000000pt" viewBox="0 0 488.000000 490.000000"
 preserveAspectRatio="xMidYMid meet">

<g transform="translate(0.000000,490.000000) scale(0.100000,-0.100000)"
fill="#000000" stroke="none">
<path d="M2155 4665 c-749 -106 -1385 -563 -1710 -1229 -158 -323 -228 -625
-228 -986 0 -364 67 -657 228 -985 116 -239 242 -414 435 -606 344 -341 799
-563 1279 -624 183 -24 507 -17 666 14 453 86 832 278 1150 583 362 345 594
791 672 1293 25 155 24 499 0 650 -50 305 -146 571 -299 825 -334 555 -880
931 -1528 1051 -151 28 -514 35 -665 14z m1803 -1109 c57 -32 102 -81 130
-143 16 -35 17 -106 17 -963 l0 -925 -28 -57 c-16 -32 -47 -73 -69 -92 -82
-71 21 -67 -1548 -64 l-1415 3 -41 22 c-23 12 -60 43 -82 68 -76 86 -72 31
-72 1045 0 1034 -5 966 85 1056 90 90 -46 83 1555 81 l1415 -2 53 -29z"/>
<path d="M1220 3357 c392 -361 1081 -987 1117 -1016 105 -84 157 -89 247 -27
48 33 1176 1060 1176 1071 0 3 -579 5 -1287 5 l-1288 -1 35 -32z"/>
<path d="M1050 2430 c0 -744 1 -771 18 -758 31 22 822 761 822 768 0 6 -768
705 -817 743 l-23 18 0 -771z"/>
<path d="M3478 2821 c-229 -207 -416 -379 -415 -382 1 -3 189 -179 417 -391
l415 -387 3 385 c1 211 1 557 0 768 l-3 383 -417 -376z"/>
<path d="M1620 1902 l-422 -387 641 -3 c353 -1 928 -1 1280 0 l639 3 -355 325
c-195 179 -385 353 -422 386 l-67 62 -89 -80 c-107 -96 -179 -134 -279 -150
-154 -24 -276 20 -417 151 l-86 80 -423 -387z"/>
</g>
</svg>
