<?xml version="1.0" encoding="UTF-8"?>
<svg xmlns="http://www.w3.org/2000/svg" xmlns:xlink="http://www.w3.org/1999/xlink" width="30px" height="30px" viewBox="0 0 30 30" version="1.1">
<g id="surface1">
<path style=" stroke:none;fill-rule:nonzero;fill:rgb(0%,0%,0%);fill-opacity:1;" d="M 13.234375 0.152344 C 9.886719 0.574219 6.835938 2.0625 4.457031 4.433594 C 2.367188 6.515625 0.929688 9.144531 0.339844 11.972656 C -0.0664062 13.9375 -0.0429688 16.285156 0.40625 18.292969 C 1.777344 24.402344 7.007812 29.09375 13.253906 29.824219 C 17.722656 30.34375 22.148438 28.851562 25.382812 25.722656 C 27.4375 23.734375 28.824219 21.367188 29.507812 18.695312 C 29.871094 17.269531 29.964844 16.511719 29.964844 14.988281 C 29.964844 13.464844 29.871094 12.707031 29.507812 11.285156 C 28.855469 8.730469 27.597656 6.503906 25.726562 4.59375 C 23.359375 2.179688 20.65625 0.78125 17.214844 0.207031 C 16.382812 0.0742188 14.128906 0.0429688 13.234375 0.152344 Z M 17.335938 1.523438 C 22.175781 2.417969 26.078125 5.632812 27.828125 10.1875 C 28.101562 10.882812 28.425781 12.132812 28.566406 13 C 28.714844 13.921875 28.722656 16.027344 28.566406 16.976562 C 27.929688 21.027344 25.652344 24.464844 22.167969 26.636719 C 20.777344 27.503906 19.175781 28.109375 17.367188 28.453125 C 16.390625 28.640625 14.398438 28.683594 13.273438 28.539062 C 9.355469 28.046875 5.835938 25.863281 3.585938 22.53125 C 3.117188 21.832031 2.367188 20.339844 2.089844 19.546875 C 1.574219 18.078125 1.335938 16.613281 1.335938 14.988281 C 1.335938 13.679688 1.4375 12.792969 1.753906 11.59375 C 2.015625 10.558594 2.25 9.941406 2.734375 8.957031 C 4.734375 4.882812 8.644531 2.085938 13.246094 1.4375 C 14.175781 1.308594 16.40625 1.351562 17.335938 1.523438 Z M 17.335938 1.523438 "/>
<path style=" stroke:none;fill-rule:nonzero;fill:rgb(0%,0%,0%);fill-opacity:1;" d="M 6.332031 8.117188 C 6.171875 8.179688 5.933594 8.34375 5.746094 8.527344 C 5.195312 9.078125 5.226562 8.664062 5.226562 14.988281 C 5.226562 21.191406 5.199219 20.855469 5.667969 21.378906 C 5.804688 21.535156 6.03125 21.722656 6.171875 21.796875 L 6.425781 21.929688 L 15.121094 21.949219 C 24.769531 21.96875 24.136719 21.992188 24.640625 21.558594 C 24.773438 21.441406 24.964844 21.191406 25.0625 20.996094 L 25.234375 20.644531 L 25.234375 14.988281 C 25.234375 9.746094 25.230469 9.3125 25.132812 9.097656 C 24.960938 8.71875 24.683594 8.417969 24.332031 8.222656 L 24.007812 8.042969 L 15.308594 8.03125 C 7.507812 8.027344 6.578125 8.03125 6.332031 8.117188 Z M 23.113281 9.269531 C 23.113281 9.335938 16.179688 15.617188 15.886719 15.820312 C 15.332031 16.199219 15.011719 16.167969 14.367188 15.65625 C 14.144531 15.476562 9.910156 11.648438 7.5 9.4375 L 7.285156 9.242188 L 15.203125 9.238281 C 19.554688 9.238281 23.113281 9.25 23.113281 9.269531 Z M 9.179688 12.808594 C 10.519531 14.019531 11.617188 15.03125 11.617188 15.050781 C 11.617188 15.089844 6.757812 19.613281 6.566406 19.746094 C 6.460938 19.828125 6.453125 19.660156 6.453125 15.109375 L 6.453125 10.394531 L 6.597656 10.503906 C 6.675781 10.566406 7.839844 11.605469 9.179688 12.808594 Z M 23.964844 17.460938 L 23.945312 19.8125 L 21.394531 17.445312 C 19.992188 16.148438 18.835938 15.074219 18.828125 15.054688 C 18.824219 15.035156 19.972656 13.984375 21.382812 12.71875 L 23.945312 10.417969 L 23.964844 12.761719 C 23.96875 14.050781 23.96875 16.167969 23.964844 17.460938 Z M 13.984375 17.136719 C 14.746094 17.507812 15.714844 17.507812 16.464844 17.136719 C 16.652344 17.039062 17.058594 16.738281 17.367188 16.46875 L 17.914062 15.980469 L 18.324219 16.359375 C 18.554688 16.558594 19.722656 17.625 20.921875 18.71875 L 23.101562 20.707031 L 19.175781 20.726562 C 17.011719 20.730469 13.476562 20.730469 11.304688 20.726562 L 7.363281 20.707031 L 12.558594 15.972656 L 13.089844 16.460938 C 13.390625 16.738281 13.777344 17.03125 13.984375 17.136719 Z M 13.984375 17.136719 "/>
</g>
</svg>
