<?xml version="1.0" encoding="UTF-8"?>
<svg xmlns="http://www.w3.org/2000/svg" xmlns:xlink="http://www.w3.org/1999/xlink" width="30px" height="30px" viewBox="0 0 30 30" version="1.1">
<g id="surface1">
<path style="fill:none;stroke-width:12;stroke-linecap:round;stroke-linejoin:round;stroke:rgb(0%,0%,0%);stroke-opacity:1;stroke-miterlimit:4;" d="M 45.4 177 C 20.766667 135.433333 30.9 82 69.066667 52.366667 C 107.266667 22.7 161.533333 26.1 195.7 60.3 C 229.9 94.466667 233.3 148.733333 203.633333 186.933333 C 174 225.1 120.566667 235.233333 79 210.6 L 45.8 220 C 43.033333 220.8 40.033333 220.033333 38 218 C 35.966667 215.966667 35.2 212.966667 36 210.2 Z M 45.4 177 " transform="matrix(0.117188,0,0,0.117188,0,0)"/>
<path style="fill:none;stroke-width:12;stroke-linecap:round;stroke-linejoin:round;stroke:rgb(0%,0%,0%);stroke-opacity:1;stroke-miterlimit:4;" d="M 152.1 184 C 130.833333 184.066667 110.433333 175.633333 95.4 160.6 C 80.366667 145.566667 71.933333 125.166667 72 103.9 C 72.066667 88.466667 84.566667 76 100 76 C 102.5 75.966667 104.8 77.333333 106 79.5 L 117.7 99.9 C 119.1 102.433333 119.066667 105.5 117.6 108 L 108.2 123.7 C 113 134.4 121.6 143 132.3 147.8 L 148 138.4 C 150.5 136.933333 153.566667 136.9 156.1 138.3 L 176.5 150 C 178.666667 151.2 180.033333 153.5 180 156 C 179.933333 171.4 167.5 183.9 152.1 184 Z M 152.1 184 " transform="matrix(0.117188,0,0,0.117188,0,0)"/>
</g>
</svg>
