<?xml version="1.0" encoding="UTF-8"?>
<svg xmlns="http://www.w3.org/2000/svg" xmlns:xlink="http://www.w3.org/1999/xlink" width="30px" height="30px" viewBox="0 0 30 30" version="1.1">
<g id="surface1">
<path style=" stroke:none;fill-rule:evenodd;fill:rgb(0%,0%,0%);fill-opacity:1;" d="M 25.582031 4.359375 C 22.773438 1.550781 19.039062 0 15.0625 0 C 6.867188 0 0.195312 6.667969 0.191406 14.863281 C 0.191406 17.484375 0.875 20.042969 2.175781 22.296875 L 0.0664062 30 L 7.949219 27.933594 C 10.121094 29.117188 12.566406 29.742188 15.054688 29.742188 L 15.0625 29.742188 C 23.257812 29.742188 29.929688 23.074219 29.933594 14.875 C 29.933594 10.90625 28.390625 7.167969 25.582031 4.359375 M 15.0625 27.230469 L 15.058594 27.230469 C 12.839844 27.230469 10.664062 26.636719 8.765625 25.507812 L 8.316406 25.242188 L 3.636719 26.46875 L 4.886719 21.910156 L 4.59375 21.441406 C 3.355469 19.472656 2.703125 17.199219 2.703125 14.867188 C 2.707031 8.054688 8.25 2.511719 15.066406 2.511719 C 18.367188 2.511719 21.472656 3.800781 23.804688 6.132812 C 26.140625 8.46875 27.421875 11.574219 27.421875 14.875 C 27.417969 21.6875 21.875 27.230469 15.0625 27.230469 M 21.84375 17.976562 C 21.46875 17.792969 19.644531 16.894531 19.304688 16.769531 C 18.960938 16.644531 18.714844 16.582031 18.46875 16.957031 C 18.21875 17.328125 17.507812 18.164062 17.289062 18.410156 C 17.074219 18.660156 16.855469 18.691406 16.484375 18.503906 C 16.113281 18.320312 14.917969 17.925781 13.496094 16.660156 C 12.394531 15.675781 11.648438 14.460938 11.429688 14.085938 C 11.214844 13.714844 11.40625 13.515625 11.59375 13.328125 C 11.761719 13.164062 11.964844 12.894531 12.152344 12.679688 C 12.335938 12.460938 12.398438 12.308594 12.523438 12.058594 C 12.644531 11.8125 12.585938 11.59375 12.492188 11.410156 C 12.398438 11.222656 11.65625 9.394531 11.347656 8.652344 C 11.042969 7.925781 10.738281 8.023438 10.511719 8.011719 C 10.292969 8.003906 10.046875 8 9.796875 8 C 9.550781 8 9.148438 8.09375 8.808594 8.464844 C 8.464844 8.835938 7.507812 9.734375 7.507812 11.5625 C 7.507812 13.390625 8.839844 15.15625 9.023438 15.40625 C 9.210938 15.652344 11.644531 19.40625 15.371094 21.015625 C 16.257812 21.398438 16.949219 21.625 17.488281 21.796875 C 18.378906 22.078125 19.1875 22.039062 19.828125 21.945312 C 20.542969 21.835938 22.027344 21.046875 22.335938 20.179688 C 22.648438 19.308594 22.648438 18.566406 22.554688 18.410156 C 22.460938 18.257812 22.214844 18.164062 21.84375 17.976562 "/>
</g>
</svg>
