<?xml version="1.0" encoding="UTF-8"?>
<svg xmlns="http://www.w3.org/2000/svg" xmlns:xlink="http://www.w3.org/1999/xlink" width="35px" height="35px" viewBox="0 0 35 35" version="1.1">
<g id="surface1">
<path style=" stroke:none;fill-rule:evenodd;fill:rgb(0%,0%,0%);fill-opacity:1;" d="M 29.84375 5.085938 C 26.570312 1.808594 22.214844 0 17.574219 0 C 8.011719 0 0.226562 7.78125 0.222656 17.34375 C 0.222656 20.398438 1.023438 23.382812 2.539062 26.011719 L 0.078125 35 L 9.273438 32.589844 C 11.808594 33.96875 14.664062 34.699219 17.566406 34.699219 L 17.574219 34.699219 C 27.132812 34.699219 34.917969 26.917969 34.921875 17.355469 C 34.921875 12.722656 33.121094 8.363281 29.84375 5.085938 M 17.574219 31.769531 L 17.566406 31.769531 C 14.980469 31.769531 12.441406 31.074219 10.226562 29.761719 L 9.703125 29.449219 L 4.242188 30.878906 L 5.699219 25.558594 L 5.359375 25.015625 C 3.914062 22.71875 3.152344 20.066406 3.152344 17.34375 C 3.15625 9.394531 9.625 2.929688 17.578125 2.929688 C 21.429688 2.929688 25.050781 4.433594 27.773438 7.15625 C 30.496094 9.882812 31.992188 13.503906 31.992188 17.355469 C 31.988281 25.304688 25.519531 31.769531 17.574219 31.769531 M 25.484375 20.972656 C 25.050781 20.757812 22.917969 19.707031 22.519531 19.5625 C 22.125 19.417969 21.835938 19.347656 21.546875 19.78125 C 21.257812 20.214844 20.425781 21.191406 20.171875 21.480469 C 19.917969 21.769531 19.667969 21.804688 19.234375 21.589844 C 18.800781 21.371094 17.402344 20.914062 15.746094 19.4375 C 14.457031 18.289062 13.589844 16.871094 13.335938 16.4375 C 13.082031 16 13.308594 15.765625 13.527344 15.550781 C 13.722656 15.355469 13.960938 15.046875 14.175781 14.792969 C 14.394531 14.539062 14.464844 14.359375 14.609375 14.070312 C 14.753906 13.78125 14.683594 13.527344 14.574219 13.308594 C 14.464844 13.09375 13.597656 10.960938 13.238281 10.09375 C 12.886719 9.246094 12.527344 9.363281 12.261719 9.347656 C 12.007812 9.335938 11.71875 9.332031 11.429688 9.332031 C 11.140625 9.332031 10.671875 9.441406 10.273438 9.875 C 9.878906 10.308594 8.757812 11.359375 8.757812 13.492188 C 8.757812 15.625 10.3125 17.683594 10.527344 17.972656 C 10.746094 18.261719 13.585938 22.640625 17.933594 24.515625 C 18.96875 24.964844 19.773438 25.230469 20.402344 25.429688 C 21.441406 25.757812 22.386719 25.714844 23.132812 25.601562 C 23.96875 25.476562 25.699219 24.554688 26.058594 23.539062 C 26.421875 22.527344 26.421875 21.660156 26.3125 21.480469 C 26.203125 21.300781 25.914062 21.191406 25.484375 20.972656 "/>
</g>
</svg>
