<?xml version="1.0" encoding="UTF-8"?>
<svg xmlns="http://www.w3.org/2000/svg" xmlns:xlink="http://www.w3.org/1999/xlink" width="35px" height="35px" viewBox="0 0 35 35" version="1.1">
<g id="surface1">
<path style="fill:none;stroke-width:12;stroke-linecap:round;stroke-linejoin:round;stroke:rgb(0%,0%,0%);stroke-opacity:1;stroke-miterlimit:4;" d="M 45.4 177 C 20.742857 135.428571 30.914286 82 69.085714 52.342857 C 107.257143 22.714286 161.542857 26.114286 195.714286 60.285714 C 229.885714 94.457143 233.285714 148.742857 203.657143 186.914286 C 174 225.085714 120.571429 235.257143 79 210.6 L 45.8 220 C 43.028571 220.8 40.028571 220.057143 38 218 C 35.942857 215.971429 35.2 212.971429 36 210.2 Z M 45.4 177 " transform="matrix(0.136719,0,0,0.136719,0,0)"/>
<path style="fill:none;stroke-width:12;stroke-linecap:round;stroke-linejoin:round;stroke:rgb(0%,0%,0%);stroke-opacity:1;stroke-miterlimit:4;" d="M 152.114286 184 C 130.828571 184.057143 110.428571 175.628571 95.4 160.6 C 80.371429 145.571429 71.942857 125.171429 72 103.885714 C 72.057143 88.485714 84.571429 76 100 76 C 102.485714 75.971429 104.8 77.314286 106 79.485714 L 117.714286 99.885714 C 119.114286 102.428571 119.085714 105.514286 117.6 108 L 108.2 123.714286 C 113.028571 134.4 121.6 142.971429 132.285714 147.8 L 148 138.4 C 150.485714 136.914286 153.571429 136.885714 156.114286 138.314286 L 176.514286 150 C 178.685714 151.2 180.028571 153.514286 180 156 C 179.942857 171.4 167.514286 183.885714 152.114286 184 Z M 152.114286 184 " transform="matrix(0.136719,0,0,0.136719,0,0)"/>
</g>
</svg>
